<?xml version="1.0" encoding="UTF-8"?>
<svg id="Layer_1" xmlns="http://www.w3.org/2000/svg" version="1.1" viewBox="0 0 981 231.85">
  <!-- Generator: Adobe Illustrator 30.3.0, SVG Export Plug-In . SVG Version: 2.1.3 Build 182)  -->
  <defs>
    <style>
      .st0 {
        fill: #fff;
      }
    </style>
  </defs>
  <path class="st0" d="M658.05,168.95h-34.87v60.06h-63.93V2.98h103.33c61.67,0,100.42,31.97,100.42,83.63,0,33.26-16.15,57.8-44.24,71.36l48.76,71.04h-68.45l-41.01-60.06ZM658.69,53.35h-35.52v66.2h35.52c26.48,0,39.72-12.27,39.72-32.94s-13.24-33.26-39.72-33.26Z"/>
  <path class="st0" d="M969,179.84v49h-177V2.84h177v49h-114v39h114v48h-114v41h114Z"/>
  <polygon class="st0" points="527.16 2.92 474.52 2.92 397.02 133.37 317.59 2.92 264.96 2.92 264.96 176.85 288.03 228.95 324.05 228.95 324.05 112.38 381.85 206.67 410.26 206.67 468.39 109.16 469.03 228.95 527.8 228.95 527.16 2.92"/>
  <path class="st0" d="M190.56,185.04h-95.58l-17.76,43.91H12L111.78,2.92h62.96l100.1,226.03h-66.52l-17.76-43.91ZM168.16,137.89l-29.06-72.33-29.06,72.33h58.12Z"/>
</svg>